
<svg width="1440px" height="630px" viewBox="0 0 1440 630" version="1.1" xmlns="http://www.w3.org/2000/svg" xmlns:xlink="http://www.w3.org/1999/xlink">
    <!-- Generator: Sketch 48.2 (47327) - http://www.bohemiancoding.com/sketch -->
    <desc>Created with Sketch.</desc>
    <defs>
        <linearGradient x1="100.004017%" y1="98.3457341%" x2="0%" y2="0%" id="linearGradient-1">
            <stop stop-color="#6455E8" offset="0%"></stop>
            <stop stop-color="#A865E1" offset="100%"></stop>
        </linearGradient>
    </defs>
    <g id="Welcome" stroke="none" stroke-width="1" fill="none" fill-rule="evenodd">
        <g id="Desktop-HD-Copy" transform="translate(0.000000, -1.000000)" fill="url(#linearGradient-1)">
            <path d="M0,1 L1440,1 L1440,631 C1206.58008,546.56169 966.580079,525.452113 720,567.671268 C473.419921,609.890423 233.419921,631 0,631 L0,1 Z" id="Rectangle" opacity="0.298380864"></path>
            <path d="M0,1 L1440,1 L1440,631 C1206.58008,546.56169 966.580079,525.452113 720,567.671268 C473.419921,609.890423 233.419921,631 0,631 L0,1 Z" id="Rectangle" opacity="0.409397621" transform="translate(720.000000, 316.000000) scale(-1, 1) translate(-720.000000, -316.000000) "></path>
            <path d="M0,1 L1440,1 L1440,631 C1206.58008,509.447512 966.580079,469.780845 720,512 C473.419921,554.219155 233.419921,593.885822 0,631 L0,1 Z" id="Rectangle" opacity="0.576936141" transform="translate(720.000000, 316.000000) scale(-1, 1) translate(-720.000000, -316.000000) "></path>
            <path d="M-5,1 L1435,1 L1435,631 C1201.58008,509.447512 961.580079,469.780845 715,512 C468.419921,554.219155 228.419921,593.885822 -5,631 L-5,1 Z" id="Rectangle" opacity="0.674682947"></path>
        </g>
    </g>
</svg>